<mxfile host="app.diagrams.net" modified="2020-12-04T02:46:06.034Z" agent="5.0 (Windows NT 6.1; Win64; x64) AppleWebKit/537.36 (KHTML, like Gecko) Chrome/87.0.4280.66 Safari/537.36" etag="ifdOs64QrPDacjoOq4m6" version="13.10.6" type="github">
  <diagram id="S5qUhCh3FMlGCSWqxgDf" name="第 1 页">
    <mxGraphModel dx="1102" dy="582" grid="1" gridSize="10" guides="1" tooltips="1" connect="1" arrows="1" fold="1" page="1" pageScale="1" pageWidth="827" pageHeight="1169" math="0" shadow="0">
      <root>
        <mxCell id="0" />
        <mxCell id="1" parent="0" />
        <mxCell id="f7c9rDYql57IFsSIslQP-1" value="" style="rounded=0;whiteSpace=wrap;html=1;fillColor=#f9f7ed;fontSize=18;align=left;dashed=1;strokeColor=#36393d;" vertex="1" parent="1">
          <mxGeometry x="345" y="370" width="45" height="550" as="geometry" />
        </mxCell>
        <mxCell id="f7c9rDYql57IFsSIslQP-3" value="0.1" style="rounded=0;whiteSpace=wrap;html=1;fontSize=18;fillColor=none;strokeColor=none;" vertex="1" parent="1">
          <mxGeometry x="150" y="370" width="40" height="40" as="geometry" />
        </mxCell>
        <mxCell id="f7c9rDYql57IFsSIslQP-4" value="x" style="text;html=1;align=center;verticalAlign=middle;resizable=0;points=[];autosize=1;fontSize=18;fontColor=#CC0000;" vertex="1" parent="1">
          <mxGeometry x="205" y="375" width="20" height="30" as="geometry" />
        </mxCell>
        <mxCell id="f7c9rDYql57IFsSIslQP-5" value="2" style="text;html=1;align=center;verticalAlign=middle;resizable=0;points=[];autosize=1;fontSize=18;fontColor=#CC0000;" vertex="1" parent="1">
          <mxGeometry x="230" y="375" width="30" height="30" as="geometry" />
        </mxCell>
        <mxCell id="f7c9rDYql57IFsSIslQP-6" value="=" style="text;html=1;align=center;verticalAlign=middle;resizable=0;points=[];autosize=1;fontSize=18;" vertex="1" parent="1">
          <mxGeometry x="260" y="375" width="30" height="30" as="geometry" />
        </mxCell>
        <mxCell id="f7c9rDYql57IFsSIslQP-7" value="&lt;font color=&quot;#ff0000&quot;&gt;0&lt;/font&gt;.&lt;u&gt;2&lt;/u&gt;" style="text;html=1;align=center;verticalAlign=middle;resizable=0;points=[];autosize=1;fontSize=18;fontColor=#000000;" vertex="1" parent="1">
          <mxGeometry x="290" y="375" width="40" height="30" as="geometry" />
        </mxCell>
        <mxCell id="f7c9rDYql57IFsSIslQP-8" value="0.2" style="rounded=0;whiteSpace=wrap;html=1;fontSize=18;fillColor=none;strokeColor=none;" vertex="1" parent="1">
          <mxGeometry x="150" y="430" width="40" height="40" as="geometry" />
        </mxCell>
        <mxCell id="f7c9rDYql57IFsSIslQP-9" value="x" style="text;html=1;align=center;verticalAlign=middle;resizable=0;points=[];autosize=1;fontSize=18;fontColor=#CC0000;" vertex="1" parent="1">
          <mxGeometry x="205" y="435" width="20" height="30" as="geometry" />
        </mxCell>
        <mxCell id="f7c9rDYql57IFsSIslQP-10" value="2" style="text;html=1;align=center;verticalAlign=middle;resizable=0;points=[];autosize=1;fontSize=18;fontColor=#CC0000;" vertex="1" parent="1">
          <mxGeometry x="230" y="435" width="30" height="30" as="geometry" />
        </mxCell>
        <mxCell id="f7c9rDYql57IFsSIslQP-11" value="=" style="text;html=1;align=center;verticalAlign=middle;resizable=0;points=[];autosize=1;fontSize=18;" vertex="1" parent="1">
          <mxGeometry x="260" y="435" width="30" height="30" as="geometry" />
        </mxCell>
        <mxCell id="f7c9rDYql57IFsSIslQP-12" value="&lt;font color=&quot;#ff0000&quot;&gt;0&lt;/font&gt;.&lt;u style=&quot;font-size: 18px&quot;&gt;4&lt;/u&gt;" style="text;html=1;align=center;verticalAlign=middle;resizable=0;points=[];autosize=1;fontSize=18;fontColor=#000000;" vertex="1" parent="1">
          <mxGeometry x="290" y="435" width="40" height="30" as="geometry" />
        </mxCell>
        <mxCell id="f7c9rDYql57IFsSIslQP-13" value="&lt;span style=&quot;font-size: 18px&quot;&gt;0.4&lt;/span&gt;" style="rounded=0;whiteSpace=wrap;html=1;fontSize=18;fillColor=none;strokeColor=none;" vertex="1" parent="1">
          <mxGeometry x="150" y="490" width="40" height="40" as="geometry" />
        </mxCell>
        <mxCell id="f7c9rDYql57IFsSIslQP-14" value="x" style="text;html=1;align=center;verticalAlign=middle;resizable=0;points=[];autosize=1;fontSize=18;fontColor=#CC0000;" vertex="1" parent="1">
          <mxGeometry x="205" y="495" width="20" height="30" as="geometry" />
        </mxCell>
        <mxCell id="f7c9rDYql57IFsSIslQP-15" value="2" style="text;html=1;align=center;verticalAlign=middle;resizable=0;points=[];autosize=1;fontSize=18;fontColor=#CC0000;" vertex="1" parent="1">
          <mxGeometry x="230" y="495" width="30" height="30" as="geometry" />
        </mxCell>
        <mxCell id="f7c9rDYql57IFsSIslQP-16" value="=" style="text;html=1;align=center;verticalAlign=middle;resizable=0;points=[];autosize=1;fontSize=18;" vertex="1" parent="1">
          <mxGeometry x="260" y="495" width="30" height="30" as="geometry" />
        </mxCell>
        <mxCell id="f7c9rDYql57IFsSIslQP-17" value="&lt;font color=&quot;#ff0000&quot;&gt;0&lt;/font&gt;.&lt;u&gt;8&lt;/u&gt;" style="text;html=1;align=center;verticalAlign=middle;resizable=0;points=[];autosize=1;fontSize=18;fontColor=#000000;" vertex="1" parent="1">
          <mxGeometry x="290" y="495" width="40" height="30" as="geometry" />
        </mxCell>
        <mxCell id="f7c9rDYql57IFsSIslQP-18" value="" style="endArrow=classic;html=1;fontSize=18;fontColor=#000000;entryX=1;entryY=0.25;entryDx=0;entryDy=0;" edge="1" parent="1" target="f7c9rDYql57IFsSIslQP-8">
          <mxGeometry width="50" height="50" relative="1" as="geometry">
            <mxPoint x="320" y="400" as="sourcePoint" />
            <mxPoint x="130" y="420" as="targetPoint" />
          </mxGeometry>
        </mxCell>
        <mxCell id="f7c9rDYql57IFsSIslQP-19" value="" style="endArrow=classic;html=1;fontSize=18;fontColor=#000000;" edge="1" parent="1">
          <mxGeometry width="50" height="50" relative="1" as="geometry">
            <mxPoint x="320" y="461" as="sourcePoint" />
            <mxPoint x="180" y="501" as="targetPoint" />
          </mxGeometry>
        </mxCell>
        <mxCell id="f7c9rDYql57IFsSIslQP-23" value="&lt;font&gt;0&lt;/font&gt;" style="text;html=1;align=center;verticalAlign=middle;resizable=0;points=[];autosize=1;fontSize=18;fontColor=#FF0000;" vertex="1" parent="1">
          <mxGeometry x="350" y="375" width="30" height="30" as="geometry" />
        </mxCell>
        <mxCell id="f7c9rDYql57IFsSIslQP-24" value="0" style="text;html=1;align=center;verticalAlign=middle;resizable=0;points=[];autosize=1;fontSize=18;fontColor=#FF0000;" vertex="1" parent="1">
          <mxGeometry x="350" y="495" width="30" height="30" as="geometry" />
        </mxCell>
        <mxCell id="f7c9rDYql57IFsSIslQP-25" value="0" style="text;html=1;align=center;verticalAlign=middle;resizable=0;points=[];autosize=1;fontSize=18;fontColor=#FF0000;" vertex="1" parent="1">
          <mxGeometry x="350" y="440" width="30" height="30" as="geometry" />
        </mxCell>
        <mxCell id="f7c9rDYql57IFsSIslQP-26" value="" style="curved=1;endArrow=classic;html=1;fontSize=18;fontColor=#FF0000;exitX=0.321;exitY=0.056;exitDx=0;exitDy=0;exitPerimeter=0;" edge="1" parent="1" source="f7c9rDYql57IFsSIslQP-12" target="f7c9rDYql57IFsSIslQP-25">
          <mxGeometry width="50" height="50" relative="1" as="geometry">
            <mxPoint x="490" y="520" as="sourcePoint" />
            <mxPoint x="540" y="470" as="targetPoint" />
            <Array as="points">
              <mxPoint x="340" y="420" />
              <mxPoint x="360" y="430" />
            </Array>
          </mxGeometry>
        </mxCell>
        <mxCell id="f7c9rDYql57IFsSIslQP-27" value="" style="curved=1;endArrow=classic;html=1;fontSize=18;fontColor=#FF0000;exitX=0.571;exitY=0.056;exitDx=0;exitDy=0;exitPerimeter=0;entryX=0.4;entryY=0.028;entryDx=0;entryDy=0;entryPerimeter=0;" edge="1" parent="1" target="f7c9rDYql57IFsSIslQP-24">
          <mxGeometry width="50" height="50" relative="1" as="geometry">
            <mxPoint x="300.8399999999999" y="491.68000000000006" as="sourcePoint" />
            <mxPoint x="350" y="495" as="targetPoint" />
            <Array as="points">
              <mxPoint x="328" y="475" />
              <mxPoint x="348" y="485" />
            </Array>
          </mxGeometry>
        </mxCell>
        <mxCell id="f7c9rDYql57IFsSIslQP-28" value="" style="curved=1;endArrow=classic;html=1;fontSize=18;fontColor=#FF0000;exitX=0.321;exitY=0.056;exitDx=0;exitDy=0;exitPerimeter=0;" edge="1" parent="1">
          <mxGeometry width="50" height="50" relative="1" as="geometry">
            <mxPoint x="300.8399999999999" y="376.68000000000006" as="sourcePoint" />
            <mxPoint x="360" y="380" as="targetPoint" />
            <Array as="points">
              <mxPoint x="338" y="360" />
              <mxPoint x="358" y="370" />
            </Array>
          </mxGeometry>
        </mxCell>
        <mxCell id="f7c9rDYql57IFsSIslQP-54" value="&lt;span style=&quot;font-size: 18px&quot;&gt;0.8&lt;/span&gt;" style="rounded=0;whiteSpace=wrap;html=1;fontSize=18;fillColor=none;strokeColor=none;" vertex="1" parent="1">
          <mxGeometry x="150" y="545" width="40" height="40" as="geometry" />
        </mxCell>
        <mxCell id="f7c9rDYql57IFsSIslQP-55" value="x" style="text;html=1;align=center;verticalAlign=middle;resizable=0;points=[];autosize=1;fontSize=18;fontColor=#CC0000;" vertex="1" parent="1">
          <mxGeometry x="205" y="550" width="20" height="30" as="geometry" />
        </mxCell>
        <mxCell id="f7c9rDYql57IFsSIslQP-56" value="2" style="text;html=1;align=center;verticalAlign=middle;resizable=0;points=[];autosize=1;fontSize=18;fontColor=#CC0000;" vertex="1" parent="1">
          <mxGeometry x="230" y="550" width="30" height="30" as="geometry" />
        </mxCell>
        <mxCell id="f7c9rDYql57IFsSIslQP-57" value="=" style="text;html=1;align=center;verticalAlign=middle;resizable=0;points=[];autosize=1;fontSize=18;" vertex="1" parent="1">
          <mxGeometry x="260" y="550" width="30" height="30" as="geometry" />
        </mxCell>
        <mxCell id="f7c9rDYql57IFsSIslQP-58" value="&lt;font color=&quot;#ff0000&quot;&gt;1&lt;/font&gt;.&lt;u&gt;6&lt;/u&gt;" style="text;html=1;align=center;verticalAlign=middle;resizable=0;points=[];autosize=1;fontSize=18;fontColor=#000000;" vertex="1" parent="1">
          <mxGeometry x="290" y="550" width="40" height="30" as="geometry" />
        </mxCell>
        <mxCell id="f7c9rDYql57IFsSIslQP-59" value="1" style="text;html=1;align=center;verticalAlign=middle;resizable=0;points=[];autosize=1;fontSize=18;fontColor=#FF0000;" vertex="1" parent="1">
          <mxGeometry x="350" y="550" width="30" height="30" as="geometry" />
        </mxCell>
        <mxCell id="f7c9rDYql57IFsSIslQP-60" value="" style="curved=1;endArrow=classic;html=1;fontSize=18;fontColor=#FF0000;exitX=0.571;exitY=0.056;exitDx=0;exitDy=0;exitPerimeter=0;entryX=0.4;entryY=0.028;entryDx=0;entryDy=0;entryPerimeter=0;" edge="1" parent="1" target="f7c9rDYql57IFsSIslQP-59">
          <mxGeometry width="50" height="50" relative="1" as="geometry">
            <mxPoint x="300.8399999999999" y="546.6800000000001" as="sourcePoint" />
            <mxPoint x="350" y="550" as="targetPoint" />
            <Array as="points">
              <mxPoint x="328" y="530" />
              <mxPoint x="348" y="540" />
            </Array>
          </mxGeometry>
        </mxCell>
        <mxCell id="f7c9rDYql57IFsSIslQP-61" value="&lt;span style=&quot;font-size: 18px&quot;&gt;0.6&lt;/span&gt;" style="rounded=0;whiteSpace=wrap;html=1;fontSize=18;fillColor=none;strokeColor=none;" vertex="1" parent="1">
          <mxGeometry x="150" y="600" width="40" height="40" as="geometry" />
        </mxCell>
        <mxCell id="f7c9rDYql57IFsSIslQP-62" value="x" style="text;html=1;align=center;verticalAlign=middle;resizable=0;points=[];autosize=1;fontSize=18;fontColor=#CC0000;" vertex="1" parent="1">
          <mxGeometry x="205" y="605" width="20" height="30" as="geometry" />
        </mxCell>
        <mxCell id="f7c9rDYql57IFsSIslQP-63" value="2" style="text;html=1;align=center;verticalAlign=middle;resizable=0;points=[];autosize=1;fontSize=18;fontColor=#CC0000;" vertex="1" parent="1">
          <mxGeometry x="230" y="605" width="30" height="30" as="geometry" />
        </mxCell>
        <mxCell id="f7c9rDYql57IFsSIslQP-64" value="=" style="text;html=1;align=center;verticalAlign=middle;resizable=0;points=[];autosize=1;fontSize=18;" vertex="1" parent="1">
          <mxGeometry x="260" y="605" width="30" height="30" as="geometry" />
        </mxCell>
        <mxCell id="f7c9rDYql57IFsSIslQP-65" value="&lt;font color=&quot;#ff0000&quot;&gt;1&lt;/font&gt;.&lt;u&gt;2&lt;/u&gt;" style="text;html=1;align=center;verticalAlign=middle;resizable=0;points=[];autosize=1;fontSize=18;fontColor=#000000;" vertex="1" parent="1">
          <mxGeometry x="290" y="605" width="40" height="30" as="geometry" />
        </mxCell>
        <mxCell id="f7c9rDYql57IFsSIslQP-66" value="1" style="text;html=1;align=center;verticalAlign=middle;resizable=0;points=[];autosize=1;fontSize=18;fontColor=#FF0000;" vertex="1" parent="1">
          <mxGeometry x="350" y="605" width="30" height="30" as="geometry" />
        </mxCell>
        <mxCell id="f7c9rDYql57IFsSIslQP-67" value="" style="curved=1;endArrow=classic;html=1;fontSize=18;fontColor=#FF0000;exitX=0.571;exitY=0.056;exitDx=0;exitDy=0;exitPerimeter=0;entryX=0.4;entryY=0.028;entryDx=0;entryDy=0;entryPerimeter=0;" edge="1" parent="1" target="f7c9rDYql57IFsSIslQP-66">
          <mxGeometry width="50" height="50" relative="1" as="geometry">
            <mxPoint x="300.8399999999999" y="601.6800000000001" as="sourcePoint" />
            <mxPoint x="350" y="605" as="targetPoint" />
            <Array as="points">
              <mxPoint x="328" y="585" />
              <mxPoint x="348" y="595" />
            </Array>
          </mxGeometry>
        </mxCell>
        <mxCell id="f7c9rDYql57IFsSIslQP-118" value="" style="endArrow=classic;html=1;fontSize=18;fontColor=#000000;" edge="1" parent="1">
          <mxGeometry width="50" height="50" relative="1" as="geometry">
            <mxPoint x="320" y="518" as="sourcePoint" />
            <mxPoint x="180" y="558" as="targetPoint" />
          </mxGeometry>
        </mxCell>
        <mxCell id="f7c9rDYql57IFsSIslQP-119" value="" style="endArrow=classic;html=1;fontSize=18;fontColor=#000000;" edge="1" parent="1">
          <mxGeometry width="50" height="50" relative="1" as="geometry">
            <mxPoint x="320" y="572" as="sourcePoint" />
            <mxPoint x="180" y="612" as="targetPoint" />
          </mxGeometry>
        </mxCell>
        <mxCell id="f7c9rDYql57IFsSIslQP-120" value="0.2" style="rounded=0;whiteSpace=wrap;html=1;fontSize=18;fillColor=none;strokeColor=none;" vertex="1" parent="1">
          <mxGeometry x="150" y="662" width="40" height="40" as="geometry" />
        </mxCell>
        <mxCell id="f7c9rDYql57IFsSIslQP-121" value="x" style="text;html=1;align=center;verticalAlign=middle;resizable=0;points=[];autosize=1;fontSize=18;fontColor=#CC0000;" vertex="1" parent="1">
          <mxGeometry x="205" y="667" width="20" height="30" as="geometry" />
        </mxCell>
        <mxCell id="f7c9rDYql57IFsSIslQP-122" value="2" style="text;html=1;align=center;verticalAlign=middle;resizable=0;points=[];autosize=1;fontSize=18;fontColor=#CC0000;" vertex="1" parent="1">
          <mxGeometry x="230" y="667" width="30" height="30" as="geometry" />
        </mxCell>
        <mxCell id="f7c9rDYql57IFsSIslQP-123" value="=" style="text;html=1;align=center;verticalAlign=middle;resizable=0;points=[];autosize=1;fontSize=18;" vertex="1" parent="1">
          <mxGeometry x="260" y="667" width="30" height="30" as="geometry" />
        </mxCell>
        <mxCell id="f7c9rDYql57IFsSIslQP-124" value="&lt;font color=&quot;#ff0000&quot;&gt;0&lt;/font&gt;.&lt;u style=&quot;font-size: 18px&quot;&gt;4&lt;/u&gt;" style="text;html=1;align=center;verticalAlign=middle;resizable=0;points=[];autosize=1;fontSize=18;fontColor=#000000;" vertex="1" parent="1">
          <mxGeometry x="290" y="667" width="40" height="30" as="geometry" />
        </mxCell>
        <mxCell id="f7c9rDYql57IFsSIslQP-125" value="&lt;span style=&quot;font-size: 18px&quot;&gt;0.4&lt;/span&gt;" style="rounded=0;whiteSpace=wrap;html=1;fontSize=18;fillColor=none;strokeColor=none;" vertex="1" parent="1">
          <mxGeometry x="150" y="722" width="40" height="40" as="geometry" />
        </mxCell>
        <mxCell id="f7c9rDYql57IFsSIslQP-126" value="x" style="text;html=1;align=center;verticalAlign=middle;resizable=0;points=[];autosize=1;fontSize=18;fontColor=#CC0000;" vertex="1" parent="1">
          <mxGeometry x="205" y="727" width="20" height="30" as="geometry" />
        </mxCell>
        <mxCell id="f7c9rDYql57IFsSIslQP-127" value="2" style="text;html=1;align=center;verticalAlign=middle;resizable=0;points=[];autosize=1;fontSize=18;fontColor=#CC0000;" vertex="1" parent="1">
          <mxGeometry x="230" y="727" width="30" height="30" as="geometry" />
        </mxCell>
        <mxCell id="f7c9rDYql57IFsSIslQP-128" value="=" style="text;html=1;align=center;verticalAlign=middle;resizable=0;points=[];autosize=1;fontSize=18;" vertex="1" parent="1">
          <mxGeometry x="260" y="727" width="30" height="30" as="geometry" />
        </mxCell>
        <mxCell id="f7c9rDYql57IFsSIslQP-129" value="&lt;font color=&quot;#ff0000&quot;&gt;0&lt;/font&gt;.&lt;u&gt;8&lt;/u&gt;" style="text;html=1;align=center;verticalAlign=middle;resizable=0;points=[];autosize=1;fontSize=18;fontColor=#000000;" vertex="1" parent="1">
          <mxGeometry x="290" y="727" width="40" height="30" as="geometry" />
        </mxCell>
        <mxCell id="f7c9rDYql57IFsSIslQP-130" value="" style="endArrow=classic;html=1;fontSize=18;fontColor=#000000;" edge="1" parent="1">
          <mxGeometry width="50" height="50" relative="1" as="geometry">
            <mxPoint x="320" y="693" as="sourcePoint" />
            <mxPoint x="180" y="733" as="targetPoint" />
          </mxGeometry>
        </mxCell>
        <mxCell id="f7c9rDYql57IFsSIslQP-131" value="0" style="text;html=1;align=center;verticalAlign=middle;resizable=0;points=[];autosize=1;fontSize=18;fontColor=#FF0000;" vertex="1" parent="1">
          <mxGeometry x="350" y="727" width="30" height="30" as="geometry" />
        </mxCell>
        <mxCell id="f7c9rDYql57IFsSIslQP-132" value="0" style="text;html=1;align=center;verticalAlign=middle;resizable=0;points=[];autosize=1;fontSize=18;fontColor=#FF0000;" vertex="1" parent="1">
          <mxGeometry x="350" y="672" width="30" height="30" as="geometry" />
        </mxCell>
        <mxCell id="f7c9rDYql57IFsSIslQP-133" value="" style="curved=1;endArrow=classic;html=1;fontSize=18;fontColor=#FF0000;exitX=0.321;exitY=0.056;exitDx=0;exitDy=0;exitPerimeter=0;" edge="1" parent="1" source="f7c9rDYql57IFsSIslQP-124" target="f7c9rDYql57IFsSIslQP-132">
          <mxGeometry width="50" height="50" relative="1" as="geometry">
            <mxPoint x="490" y="752" as="sourcePoint" />
            <mxPoint x="540" y="702" as="targetPoint" />
            <Array as="points">
              <mxPoint x="340" y="652" />
              <mxPoint x="360" y="662" />
            </Array>
          </mxGeometry>
        </mxCell>
        <mxCell id="f7c9rDYql57IFsSIslQP-134" value="" style="curved=1;endArrow=classic;html=1;fontSize=18;fontColor=#FF0000;exitX=0.571;exitY=0.056;exitDx=0;exitDy=0;exitPerimeter=0;entryX=0.4;entryY=0.028;entryDx=0;entryDy=0;entryPerimeter=0;" edge="1" parent="1" target="f7c9rDYql57IFsSIslQP-131">
          <mxGeometry width="50" height="50" relative="1" as="geometry">
            <mxPoint x="300.8399999999999" y="723.6800000000001" as="sourcePoint" />
            <mxPoint x="350" y="727" as="targetPoint" />
            <Array as="points">
              <mxPoint x="328" y="707" />
              <mxPoint x="348" y="717" />
            </Array>
          </mxGeometry>
        </mxCell>
        <mxCell id="f7c9rDYql57IFsSIslQP-135" value="&lt;span style=&quot;font-size: 18px&quot;&gt;0.8&lt;/span&gt;" style="rounded=0;whiteSpace=wrap;html=1;fontSize=18;fillColor=none;strokeColor=none;" vertex="1" parent="1">
          <mxGeometry x="150" y="777" width="40" height="40" as="geometry" />
        </mxCell>
        <mxCell id="f7c9rDYql57IFsSIslQP-136" value="x" style="text;html=1;align=center;verticalAlign=middle;resizable=0;points=[];autosize=1;fontSize=18;fontColor=#CC0000;" vertex="1" parent="1">
          <mxGeometry x="205" y="782" width="20" height="30" as="geometry" />
        </mxCell>
        <mxCell id="f7c9rDYql57IFsSIslQP-137" value="2" style="text;html=1;align=center;verticalAlign=middle;resizable=0;points=[];autosize=1;fontSize=18;fontColor=#CC0000;" vertex="1" parent="1">
          <mxGeometry x="230" y="782" width="30" height="30" as="geometry" />
        </mxCell>
        <mxCell id="f7c9rDYql57IFsSIslQP-138" value="=" style="text;html=1;align=center;verticalAlign=middle;resizable=0;points=[];autosize=1;fontSize=18;" vertex="1" parent="1">
          <mxGeometry x="260" y="782" width="30" height="30" as="geometry" />
        </mxCell>
        <mxCell id="f7c9rDYql57IFsSIslQP-139" value="&lt;font color=&quot;#ff0000&quot;&gt;1&lt;/font&gt;.&lt;u&gt;6&lt;/u&gt;" style="text;html=1;align=center;verticalAlign=middle;resizable=0;points=[];autosize=1;fontSize=18;fontColor=#000000;" vertex="1" parent="1">
          <mxGeometry x="290" y="782" width="40" height="30" as="geometry" />
        </mxCell>
        <mxCell id="f7c9rDYql57IFsSIslQP-140" value="1" style="text;html=1;align=center;verticalAlign=middle;resizable=0;points=[];autosize=1;fontSize=18;fontColor=#FF0000;" vertex="1" parent="1">
          <mxGeometry x="350" y="782" width="30" height="30" as="geometry" />
        </mxCell>
        <mxCell id="f7c9rDYql57IFsSIslQP-141" value="" style="curved=1;endArrow=classic;html=1;fontSize=18;fontColor=#FF0000;exitX=0.571;exitY=0.056;exitDx=0;exitDy=0;exitPerimeter=0;entryX=0.4;entryY=0.028;entryDx=0;entryDy=0;entryPerimeter=0;" edge="1" parent="1" target="f7c9rDYql57IFsSIslQP-140">
          <mxGeometry width="50" height="50" relative="1" as="geometry">
            <mxPoint x="300.8399999999999" y="778.6800000000001" as="sourcePoint" />
            <mxPoint x="350" y="782" as="targetPoint" />
            <Array as="points">
              <mxPoint x="328" y="762" />
              <mxPoint x="348" y="772" />
            </Array>
          </mxGeometry>
        </mxCell>
        <mxCell id="f7c9rDYql57IFsSIslQP-142" value="&lt;span style=&quot;font-size: 18px&quot;&gt;0.6&lt;/span&gt;" style="rounded=0;whiteSpace=wrap;html=1;fontSize=18;fillColor=none;strokeColor=none;" vertex="1" parent="1">
          <mxGeometry x="150" y="832" width="40" height="40" as="geometry" />
        </mxCell>
        <mxCell id="f7c9rDYql57IFsSIslQP-143" value="x" style="text;html=1;align=center;verticalAlign=middle;resizable=0;points=[];autosize=1;fontSize=18;fontColor=#CC0000;" vertex="1" parent="1">
          <mxGeometry x="205" y="837" width="20" height="30" as="geometry" />
        </mxCell>
        <mxCell id="f7c9rDYql57IFsSIslQP-144" value="2" style="text;html=1;align=center;verticalAlign=middle;resizable=0;points=[];autosize=1;fontSize=18;fontColor=#CC0000;" vertex="1" parent="1">
          <mxGeometry x="230" y="837" width="30" height="30" as="geometry" />
        </mxCell>
        <mxCell id="f7c9rDYql57IFsSIslQP-145" value="=" style="text;html=1;align=center;verticalAlign=middle;resizable=0;points=[];autosize=1;fontSize=18;" vertex="1" parent="1">
          <mxGeometry x="260" y="837" width="30" height="30" as="geometry" />
        </mxCell>
        <mxCell id="f7c9rDYql57IFsSIslQP-146" value="&lt;font color=&quot;#ff0000&quot;&gt;1&lt;/font&gt;.&lt;u&gt;2&lt;/u&gt;" style="text;html=1;align=center;verticalAlign=middle;resizable=0;points=[];autosize=1;fontSize=18;fontColor=#000000;" vertex="1" parent="1">
          <mxGeometry x="290" y="837" width="40" height="30" as="geometry" />
        </mxCell>
        <mxCell id="f7c9rDYql57IFsSIslQP-147" value="1" style="text;html=1;align=center;verticalAlign=middle;resizable=0;points=[];autosize=1;fontSize=18;fontColor=#FF0000;" vertex="1" parent="1">
          <mxGeometry x="350" y="837" width="30" height="30" as="geometry" />
        </mxCell>
        <mxCell id="f7c9rDYql57IFsSIslQP-148" value="" style="curved=1;endArrow=classic;html=1;fontSize=18;fontColor=#FF0000;exitX=0.571;exitY=0.056;exitDx=0;exitDy=0;exitPerimeter=0;entryX=0.4;entryY=0.028;entryDx=0;entryDy=0;entryPerimeter=0;" edge="1" parent="1" target="f7c9rDYql57IFsSIslQP-147">
          <mxGeometry width="50" height="50" relative="1" as="geometry">
            <mxPoint x="300.8399999999999" y="833.6800000000001" as="sourcePoint" />
            <mxPoint x="350" y="837" as="targetPoint" />
            <Array as="points">
              <mxPoint x="328" y="817" />
              <mxPoint x="348" y="827" />
            </Array>
          </mxGeometry>
        </mxCell>
        <mxCell id="f7c9rDYql57IFsSIslQP-149" value="" style="endArrow=classic;html=1;fontSize=18;fontColor=#000000;" edge="1" parent="1">
          <mxGeometry width="50" height="50" relative="1" as="geometry">
            <mxPoint x="320" y="750" as="sourcePoint" />
            <mxPoint x="180" y="790" as="targetPoint" />
          </mxGeometry>
        </mxCell>
        <mxCell id="f7c9rDYql57IFsSIslQP-150" value="" style="endArrow=classic;html=1;fontSize=18;fontColor=#000000;" edge="1" parent="1">
          <mxGeometry width="50" height="50" relative="1" as="geometry">
            <mxPoint x="320" y="804" as="sourcePoint" />
            <mxPoint x="180" y="844" as="targetPoint" />
          </mxGeometry>
        </mxCell>
        <mxCell id="f7c9rDYql57IFsSIslQP-152" value="" style="endArrow=classic;html=1;fontSize=18;fontColor=#000000;" edge="1" parent="1">
          <mxGeometry width="50" height="50" relative="1" as="geometry">
            <mxPoint x="321" y="631" as="sourcePoint" />
            <mxPoint x="181" y="671" as="targetPoint" />
          </mxGeometry>
        </mxCell>
        <mxCell id="f7c9rDYql57IFsSIslQP-153" value="0.2" style="rounded=0;whiteSpace=wrap;html=1;fontSize=18;fillColor=none;strokeColor=none;" vertex="1" parent="1">
          <mxGeometry x="150" y="880" width="40" height="40" as="geometry" />
        </mxCell>
        <mxCell id="f7c9rDYql57IFsSIslQP-154" value="x" style="text;html=1;align=center;verticalAlign=middle;resizable=0;points=[];autosize=1;fontSize=18;fontColor=#CC0000;" vertex="1" parent="1">
          <mxGeometry x="205" y="885" width="20" height="30" as="geometry" />
        </mxCell>
        <mxCell id="f7c9rDYql57IFsSIslQP-155" value="2" style="text;html=1;align=center;verticalAlign=middle;resizable=0;points=[];autosize=1;fontSize=18;fontColor=#CC0000;" vertex="1" parent="1">
          <mxGeometry x="230" y="885" width="30" height="30" as="geometry" />
        </mxCell>
        <mxCell id="f7c9rDYql57IFsSIslQP-156" value="=" style="text;html=1;align=center;verticalAlign=middle;resizable=0;points=[];autosize=1;fontSize=18;" vertex="1" parent="1">
          <mxGeometry x="260" y="885" width="30" height="30" as="geometry" />
        </mxCell>
        <mxCell id="f7c9rDYql57IFsSIslQP-157" value="&lt;font color=&quot;#ff0000&quot;&gt;0&lt;/font&gt;.&lt;u style=&quot;font-size: 18px&quot;&gt;4&lt;/u&gt;" style="text;html=1;align=center;verticalAlign=middle;resizable=0;points=[];autosize=1;fontSize=18;fontColor=#000000;" vertex="1" parent="1">
          <mxGeometry x="290" y="885" width="40" height="30" as="geometry" />
        </mxCell>
        <mxCell id="f7c9rDYql57IFsSIslQP-158" value="0" style="text;html=1;align=center;verticalAlign=middle;resizable=0;points=[];autosize=1;fontSize=18;fontColor=#FF0000;" vertex="1" parent="1">
          <mxGeometry x="350" y="885" width="30" height="30" as="geometry" />
        </mxCell>
        <mxCell id="f7c9rDYql57IFsSIslQP-160" value="" style="endArrow=classic;html=1;fontSize=18;fontColor=#000000;" edge="1" parent="1">
          <mxGeometry width="50" height="50" relative="1" as="geometry">
            <mxPoint x="320" y="858" as="sourcePoint" />
            <mxPoint x="180" y="898" as="targetPoint" />
          </mxGeometry>
        </mxCell>
        <mxCell id="f7c9rDYql57IFsSIslQP-161" value="" style="curved=1;endArrow=classic;html=1;fontSize=18;fontColor=#FF0000;exitX=0.571;exitY=0.056;exitDx=0;exitDy=0;exitPerimeter=0;entryX=0.4;entryY=0.028;entryDx=0;entryDy=0;entryPerimeter=0;" edge="1" parent="1">
          <mxGeometry width="50" height="50" relative="1" as="geometry">
            <mxPoint x="299.99999999999994" y="883.6800000000001" as="sourcePoint" />
            <mxPoint x="361.16" y="887.8399999999999" as="targetPoint" />
            <Array as="points">
              <mxPoint x="327.16" y="867" />
              <mxPoint x="347.16" y="877" />
            </Array>
          </mxGeometry>
        </mxCell>
        <mxCell id="f7c9rDYql57IFsSIslQP-162" value="" style="endArrow=none;dashed=1;html=1;dashPattern=1 3;strokeWidth=2;" edge="1" parent="1">
          <mxGeometry width="50" height="50" relative="1" as="geometry">
            <mxPoint x="130" y="930" as="sourcePoint" />
            <mxPoint x="510" y="930" as="targetPoint" />
          </mxGeometry>
        </mxCell>
        <mxCell id="f7c9rDYql57IFsSIslQP-163" value="........." style="text;html=1;align=center;verticalAlign=middle;resizable=0;points=[];autosize=1;fontSize=16;fontStyle=1;fontColor=#FF0000;" vertex="1" parent="1">
          <mxGeometry x="210" y="940" width="60" height="20" as="geometry" />
        </mxCell>
        <mxCell id="f7c9rDYql57IFsSIslQP-164" value="" style="shape=flexArrow;endArrow=classic;html=1;fontSize=16;fillColor=#dae8fc;strokeColor=none;" edge="1" parent="1">
          <mxGeometry width="50" height="50" relative="1" as="geometry">
            <mxPoint x="320" y="949.5" as="sourcePoint" />
            <mxPoint x="420" y="949.5" as="targetPoint" />
          </mxGeometry>
        </mxCell>
        <mxCell id="f7c9rDYql57IFsSIslQP-165" value="0.0001100110&lt;font color=&quot;#ff0000&quot;&gt;....&lt;/font&gt;" style="text;html=1;align=center;verticalAlign=middle;resizable=0;points=[];autosize=1;fontSize=18;fontStyle=1" vertex="1" parent="1">
          <mxGeometry x="420" y="935" width="150" height="30" as="geometry" />
        </mxCell>
      </root>
    </mxGraphModel>
  </diagram>
</mxfile>
